# File created by Blade
# Date/Time:  Wed Jan 21 17:41:14 2015
# Frame Rate: 120.000 fps
#------------------------------------------------------
:FULLY-SPECIFIED
:DEGREES
441
root 7.475767 35.481464 -24.214358 -272.437253 86.612195 -348.285128
Spine 71.475307 0.028595 -0.850773
Head -29.363400 -0.889940 5.062798
LeftShoulder 6.197895 -56.808066 30.417725
LeftArm 55.573523 -1.331889 -9.361989
LeftForeArm 4.021364 -0.000000 -1.120552
LeftHand 0.976885 -0.000000 33.781426
LeftHandThumb1 -26.253704 0.000000 33.147579
RightShoulder 5.118511 14.749512 -29.212720
RightArm 54.634167 47.758855 10.640835
RightForeArm -27.399612 -0.000000 13.327224
RightHand -3.470695 -0.000000 -31.288733
RightHandThumb1 -24.326973 -0.000000 -32.862282
LeftUpLeg -83.034270 -2.634934 -7.319258
LeftLeg -1.380753 -0.000000 0.000000
LeftFoot -6.089253 29.745237 -6.066685
LeftToeBase 21.195046 -0.000000 -0.000000
RightUpLeg -84.976042 -0.531131 -0.342551
RightLeg -0.207903 -0.000000 0.000000
RightFoot -6.736650 -25.848074 9.132679
RightToeBase 24.591034 -0.000000 -0.000000
442
root 7.494499 35.482942 -24.208665 -272.654052 86.643379 -348.491968
Spine 71.306434 0.089670 -0.832272
Head -30.002164 -0.849153 5.090237
LeftShoulder 6.015518 -56.785244 30.546100
LeftArm 55.681212 -1.425928 -9.379528
LeftForeArm 4.165466 -0.000000 -1.046069
LeftHand 1.034847 -0.000000 33.744593
LeftHandThumb1 -26.253704 0.000000 33.147579
RightShoulder 5.009143 14.890370 -29.298714
RightArm 54.463407 47.504778 10.469947
RightForeArm -27.267614 -0.000000 13.266981
RightHand -3.471609 -0.000000 -31.973688
RightHandThumb1 -24.326973 -0.000000 -32.862282
LeftUpLeg -82.961904 -2.600813 -7.382367
LeftLeg -1.441371 -0.000000 0.000000
LeftFoot -6.101001 29.649758 -6.036868
LeftToeBase 21.218215 -0.000000 -0.000000
RightUpLeg -84.895975 -0.522437 -0.249559
RightLeg -0.283741 -0.000000 0.000000
RightFoot -6.685487 -25.846195 9.152255
RightToeBase 24.932600 -0.000000 -0.000000
443
root 7.505304 35.483966 -24.206300 -272.699322 86.672708 -348.592827
Spine 71.002498 0.154107 -0.777623
Head -30.546765 -0.790806 5.117785
LeftShoulder 6.120562 -56.808986 30.457508
LeftArm 55.744087 -1.338226 -9.172948
LeftForeArm 4.166743 -0.000000 -1.066489
LeftHand 0.898028 -0.000000 34.030399
LeftHandThumb1 -26.253704 0.000000 33.147579
RightShoulder 4.948868 14.870144 -29.354992
RightArm 54.335190 47.431119 10.370899
RightForeArm -27.220281 0.000000 13.210887
RightHand -3.290265 0.000000 -32.861567
RightHandThumb1 -24.326973 -0.000000 -32.862282
LeftUpLeg -82.986941 -2.592516 -7.413279
LeftLeg -1.477017 -0.000000 0.000000
LeftFoot -6.181466 29.567049 -6.182197
LeftToeBase 21.274820 -0.000000 -0.000000
RightUpLeg -84.914690 -0.523824 -0.227002
RightLeg -0.309389 -0.000000 0.000000
RightFoot -6.699439 -25.902559 9.149841
RightToeBase 24.841478 -0.000000 -0.000000
444
root 7.521409 35.485263 -24.209508 -272.142912 86.683053 -348.085587
Spine 70.697153 0.150128 -0.765385
Head -31.098328 -0.688798 5.101343
LeftShoulder 6.125183 -56.859779 30.436695
LeftArm 55.743824 -1.285242 -9.071934
LeftForeArm 4.243210 -0.000000 -1.021288
LeftHand 0.927790 0.000000 34.017684
LeftHandThumb1 -26.253704 0.000000 33.147579
RightShoulder 4.924942 14.917022 -29.483999
RightArm 54.108571 47.303434 10.262875
RightForeArm -27.115417 -0.000000 13.246649
RightHand -3.294244 0.000000 -33.598780
RightHandThumb1 -24.326973 -0.000000 -32.862282
LeftUpLeg -82.993004 -2.635780 -7.423876
LeftLeg -1.493718 -0.000000 0.000000
LeftFoot -6.135620 29.561548 -6.049626
LeftToeBase 21.261744 -0.000000 -0.000000
RightUpLeg -84.913462 -0.567582 -0.193811
RightLeg -0.361752 -0.000000 0.000000
RightFoot -6.674871 -25.852234 9.098016
RightToeBase 24.801870 -0.000000 -0.000000
445
root 7.547492 35.486510 -24.220553 -271.171141 86.655980 -347.097455
Spine 70.493711 0.103912 -0.768437
Head -31.704981 -0.616970 5.019543
LeftShoulder 6.207864 -56.953501 30.339370
LeftArm 55.713213 -1.213447 -8.814346
LeftForeArm 3.972554 -0.000000 -1.035879
LeftHand 1.163063 -0.000000 33.968195
LeftHandThumb1 -26.253704 0.000000 33.147579
RightShoulder 4.955950 15.071041 -29.605308
RightArm 53.836751 47.232464 10.123903
RightForeArm -27.263995 0.000000 13.221282
RightHand -3.085307 -0.000000 -34.359907
RightHandThumb1 -24.326973 -0.000000 -32.862282
LeftUpLeg -82.889471 -2.706833 -7.482375
LeftLeg -1.563247 -0.000000 0.000000
LeftFoot -6.136301 29.566172 -6.063898
LeftToeBase 21.233567 -0.000000 -0.000000
RightUpLeg -84.826364 -0.659449 -0.150562
RightLeg -0.437133 -0.000000 0.000000
RightFoot -6.641907 -25.750622 8.959477
RightToeBase 24.927951 -0.000000 -0.000000
446
root 7.571526 35.486239 -24.231207 -270.392384 86.606720 -346.315980
Spine 70.260574 0.094595 -0.779720
Head -32.314444 -0.520718 4.973025
LeftShoulder 6.269545 -57.064866 30.293179
LeftArm 55.618156 -1.248997 -8.708173
LeftForeArm 4.133376 -0.000000 -0.950972
LeftHand 1.104642 -0.000000 33.837057
LeftHandThumb1 -26.253704 0.000000 33.147579
RightShoulder 4.936310 15.135719 -29.754385
RightArm 53.517116 47.182839 9.908548
RightForeArm -27.228804 -0.000000 13.176263
RightHand -2.952343 -0.000000 -35.142671
RightHandThumb1 -24.326973 -0.000000 -32.862282
LeftUpLeg -82.816257 -2.776234 -7.528381
LeftLeg -1.614535 -0.000000 0.000000
LeftFoot -6.152008 29.622794 -6.097561
LeftToeBase 21.191116 -0.000000 -0.000000
RightUpLeg -84.763349 -0.737634 -0.162674
RightLeg -0.493781 -0.000000 0.000000
RightFoot -6.618283 -25.703967 8.813977
RightToeBase 24.948296 -0.000000 -0.000000
447
root 7.591504 35.487967 -24.236457 -269.836313 86.524812 -345.821076
Spine 69.942474 0.115788 -0.920666
Head -32.918491 -0.429263 4.991097
LeftShoulder 6.331278 -57.089359 30.245921
LeftArm 55.609874 -1.207668 -8.321925
LeftForeArm 4.068135 -0.000000 -1.051206
LeftHand 1.137741 -0.000000 33.918295
LeftHandThumb1 -26.253704 0.000000 33.147579
RightShoulder 4.966483 15.275829 -29.791863
RightArm 53.303229 47.113972 9.700261
RightForeArm -27.240378 0.000000 13.081880
RightHand -2.954379 -0.000000 -35.832859
RightHandThumb1 -24.326973 -0.000000 -32.862282
LeftUpLeg -82.819024 -2.822879 -7.581900
LeftLeg -1.638202 -0.000000 0.000000
LeftFoot -6.181869 29.607436 -6.160883
LeftToeBase 21.155797 -0.000000 -0.000000
RightUpLeg -84.777216 -0.784647 -0.243513
RightLeg -0.534778 -0.000000 0.000000
RightFoot -6.662888 -25.703681 8.812659
RightToeBase 24.858565 -0.000000 -0.000000
448
root 7.605991 35.489051 -24.235474 -269.597528 86.560852 -345.655600
Spine 69.590769 0.151752 -0.827135
Head -33.562085 -0.290570 4.972826
LeftShoulder 6.345283 -57.371241 30.275638
LeftArm 55.484734 -1.143941 -8.349349
LeftForeArm 4.219863 -0.000000 -1.080543
LeftHand 1.544653 -0.000000 33.879090
LeftHandThumb1 -26.253704 0.000000 33.147579
RightShoulder 4.933776 15.337218 -29.909736
RightArm 52.933665 47.060426 9.305471
RightForeArm -27.060991 -0.000000 13.010731
RightHand -3.047013 -0.000000 -36.228200
RightHandThumb1 -24.326973 -0.000000 -32.862282
LeftUpLeg -82.892654 -2.841676 -7.542808
LeftLeg -1.602020 -0.000000 0.000000
LeftFoot -6.216415 29.617955 -6.172274
LeftToeBase 21.180617 -0.000000 -0.000000
RightUpLeg -84.796303 -0.801512 -0.174578
RightLeg -0.586123 -0.000000 0.000000
RightFoot -6.654710 -25.665825 8.789574
RightToeBase 24.922249 -0.000000 -0.000000
449
root 7.603215 35.491220 -24.203778 -271.020502 86.839243 -347.256253
Spine 69.021046 0.250168 -0.591430
Head -33.964408 -0.138636 4.942155
LeftShoulder 6.438006 -57.405050 30.208109
LeftArm 55.347943 -1.145594 -8.169070
LeftForeArm 4.254141 -0.000000 -0.996581
LeftHand 1.405218 -0.000000 33.826414
LeftHandThumb1 -26.253704 0.000000 33.147579
RightShoulder 5.021231 15.502735 -30.018288
RightArm 52.791679 47.031820 9.249570
RightForeArm -26.968028 -0.000000 12.896634
RightHand -2.969413 -0.000000 -36.646784
RightHandThumb1 -24.326973 -0.000000 -32.862282
LeftUpLeg -83.229124 -2.722772 -7.154267
LeftLeg -1.378328 -0.000000 0.000000
LeftFoot -6.271503 29.684058 -6.091057
LeftToeBase 21.206532 -0.000000 -0.000000
RightUpLeg -84.901449 -0.647545 0.094794
RightLeg -0.670170 -0.000000 0.000000
RightFoot -6.632540 -25.728905 8.987811
RightToeBase 24.957493 -0.000000 -0.000000
450
root 7.617287 35.493060 -24.186891 -272.039138 86.933549 -348.357123
Spine 68.686695 0.340773 -0.569031
Head -34.644080 -0.027451 4.955662
LeftShoulder 6.405391 -57.335826 30.240976
LeftArm 55.336389 -1.348569 -7.773816
LeftForeArm 4.130846 -0.000000 -1.159949
LeftHand 1.596553 -0.000000 33.755147
LeftHandThumb1 -26.253704 0.000000 33.147579
RightShoulder 5.029916 15.614835 -30.095684
RightArm 52.563467 47.175974 9.016815
RightForeArm -26.686310 0.000000 12.881384
RightHand -3.010786 -0.000000 -36.517558
RightHandThumb1 -24.326973 -0.000000 -32.862282
LeftUpLeg -83.348057 -2.648412 -7.041345
LeftLeg -1.298555 -0.000000 0.000000
LeftFoot -6.357620 29.684931 -6.069123
LeftToeBase 21.301662 -0.000000 -0.000000
RightUpLeg -84.913108 -0.563731 0.224114
RightLeg -0.739374 -0.000000 0.000000
RightFoot -6.637407 -25.742851 9.079271
RightToeBase 24.884465 -0.000000 -0.000000
451
root 7.632573 35.494781 -24.189108 -271.609875 86.935648 -348.001009
Spine 68.372053 0.349419 -0.527635
Head -35.373485 -0.006679 5.006568
LeftShoulder 6.346424 -57.539890 30.287630
LeftArm 55.271445 -1.414367 -7.579741
LeftForeArm 4.182511 -0.000000 -1.276055
LeftHand 1.563684 0.000000 33.676956
LeftHandThumb1 -26.253704 0.000000 33.147579
RightShoulder 4.958431 15.583524 -30.234898
RightArm 52.374543 47.501480 8.795692
RightForeArm -26.219308 -0.000000 12.852058
RightHand -3.191383 0.000000 -36.301897
RightHandThumb1 -24.326973 -0.000000 -32.862282
LeftUpLeg -83.422572 -2.687327 -6.974013
LeftLeg -1.256925 -0.000000 0.000000
LeftFoot -6.425856 29.749095 -6.122170
LeftToeBase 21.328350 -0.000000 -0.000000
RightUpLeg -84.955872 -0.597061 0.290882
RightLeg -0.749482 -0.000000 0.000000
RightFoot -6.657541 -25.683553 9.062910
RightToeBase 24.954087 -0.000000 -0.000000
452
root 7.655760 35.497191 -24.195130 -270.926388 86.902189 -347.358605
Spine 68.114861 0.306721 -0.586196
Head -36.096787 -0.033842 5.064412
LeftShoulder 6.211722 -57.571450 30.371781
LeftArm 55.169948 -1.704234 -7.320068
LeftForeArm 3.988225 0.000000 -1.233609
LeftHand 1.382906 -0.000000 33.367363
LeftHandThumb1 -26.253704 0.000000 33.147579
RightShoulder 4.909685 15.710456 -30.407089
RightArm 52.266940 47.761454 8.680567
RightForeArm -25.859138 -0.000000 12.750797
RightHand -3.219744 0.000000 -36.259755
RightHandThumb1 -24.326973 -0.000000 -32.862282
LeftUpLeg -83.433840 -2.750964 -6.906754
LeftLeg -1.219231 -0.000000 0.000000
LeftFoot -6.483242 29.845671 -6.178912
LeftToeBase 21.233835 -0.000000 -0.000000
RightUpLeg -84.951354 -0.653611 0.316730
RightLeg -0.773633 -0.000000 0.000000
RightFoot -6.702915 -25.614092 9.069641
RightToeBase 25.022954 -0.000000 -0.000000
